# xmcd CD database file
#
# Track frame offsets:
#	150
#	17427
#	40540
#	60480
#	86280
#	108692
#	126737
#	153467
#	181635
#	201000
#	223120
#	238617
#
# Disc length: 3507 seconds
#
# Revision: 0
# Processed by: cddbd v1.5.2PL0 Copyright (c) Steve Scherf et al.
# Submitted via: CDex 1.70beta2
#
DISCID=990db10c
DTITLE=Cuco Valoy and Nino Segarra - Mano a Mano Vol 11
DYEAR=1900
DGENRE=Salsa
TTITLE0=Amor para mi - Cuco Valoy
TTITLE1=Por que te amo - Nino Segarra
TTITLE2=Juliana - Cuco Valoy
TTITLE3=Entre la espada y la pared - Nino Segarra
TTITLE4=Nacio varon - Cuco Valoy
TTITLE5=La fuente - Nino Segarra
TTITLE6=Pa´gozar contigo - Cuco Valoy
TTITLE7=Eres la unica - Nino Segarra
TTITLE8=Cantando se fue - Cuco Valoy
TTITLE9=Como amigo si, como amante no - Nino Segarra
TTITLE10=Vuelve - Cuco Valoy
TTITLE11=Siempre te vas - Nino Segarra
EXTD=
EXTT0=
EXTT1=
EXTT2=
EXTT3=
EXTT4=
EXTT5=
EXTT6=
EXTT7=
EXTT8=
EXTT9=
EXTT10=
EXTT11=
PLAYORDER=
